<?xml version="1.0" standalone="no"?><!DOCTYPE svg PUBLIC "-//W3C//DTD SVG 1.1//EN" "http://www.w3.org/Graphics/SVG/1.1/DTD/svg11.dtd"><svg t="1680839229227" class="icon" viewBox="0 0 1024 1024" version="1.1" xmlns="http://www.w3.org/2000/svg" p-id="1025" width="700" height="700" xmlns:xlink="http://www.w3.org/1999/xlink"><path d="M0 0h1024v1024H0z" fill="#FFFFFF" p-id="1026"></path><path d="M245.76 261.12a30.72 30.72 0 0 1 30.72-30.72h163.84v199.68H245.76V261.12z" fill="#FFD654" p-id="1027"></path><path d="M450.56 261.12a30.72 30.72 0 0 1 30.72-30.72h163.84v199.68H450.56V261.12zM655.36 261.12a30.72 30.72 0 0 1 30.72-30.72h163.84v199.68h-194.56V261.12zM245.76 465.92a30.72 30.72 0 0 1 30.72-30.72h163.84v199.68H245.76V465.92zM245.76 670.72a30.72 30.72 0 0 1 30.72-30.72h163.84v199.68H245.76v-168.96zM450.56 465.92a30.72 30.72 0 0 1 30.72-30.72h163.84v199.68H450.56V465.92z" fill="#6BCF99" p-id="1028"></path><path d="M655.36 465.92a30.72 30.72 0 0 1 30.72-30.72h163.84v373.76h-194.56V465.92z" fill="#FFD654" p-id="1029"></path><path d="M450.56 670.72a30.72 30.72 0 0 1 30.72-30.72h163.84v199.68H450.56v-168.96z" fill="#6BCF99" p-id="1030"></path><path d="M235.52 225.28h163.84v163.84H235.52V225.28z m204.8 163.84V225.28h163.84v163.84H440.32z m368.64 0h-163.84V225.28h163.84v163.84z m-368.64 40.96h163.84v163.84H440.32V430.08z m204.8 368.64V430.08h163.84v368.64h-163.84z m204.8-204.8V215.04a30.72 30.72 0 0 0-30.72-30.72H225.28a30.72 30.72 0 0 0-30.72 30.72v593.92a30.72 30.72 0 0 0 30.72 30.72h593.92a30.72 30.72 0 0 0 30.72-30.72v-215.04z m-245.76 204.8H440.32v-163.84h163.84v163.84z m-204.8-163.84v163.84H235.52v-163.84h163.84z m0-204.8v163.84H235.52V430.08h163.84z" fill="#000000" p-id="1031"></path><path d="M384 307.2a15.36 15.36 0 1 1-30.72 0 15.36 15.36 0 0 1 30.72 0zM384 512a15.36 15.36 0 1 1-30.72 0 15.36 15.36 0 0 1 30.72 0zM384 716.8a15.36 15.36 0 1 1-30.72 0 15.36 15.36 0 0 1 30.72 0zM593.92 307.2a15.36 15.36 0 1 1-30.72 0 15.36 15.36 0 0 1 30.72 0zM593.92 512a15.36 15.36 0 1 1-30.72 0 15.36 15.36 0 0 1 30.72 0zM593.92 716.8a15.36 15.36 0 1 1-30.72 0 15.36 15.36 0 0 1 30.72 0zM798.72 307.2a15.36 15.36 0 1 1-30.72 0 15.36 15.36 0 0 1 30.72 0zM798.72 512a15.36 15.36 0 1 1-30.72 0 15.36 15.36 0 0 1 30.72 0z" fill="#000000" p-id="1032"></path></svg>