<?xml version="1.0" standalone="no"?><!DOCTYPE svg PUBLIC "-//W3C//DTD SVG 1.1//EN" "http://www.w3.org/Graphics/SVG/1.1/DTD/svg11.dtd"><svg t="1679387940029" class="icon" viewBox="0 0 1024 1024" version="1.1" xmlns="http://www.w3.org/2000/svg" p-id="20446" xmlns:xlink="http://www.w3.org/1999/xlink" width="700" height="700"><path d="M382.293333 286.72h532.48l-106.1888 136.533333H382.293333z" fill="#2A8EE6" p-id="20447"></path><path d="M341.333333 191.146667h505.146027C891.74016 191.146667 928.426667 227.915093 928.426667 273.066667v81.92H341.333333V191.146667z" fill="#26BBEC" p-id="20448"></path><path d="M122.88 341.333333h287.993173S546.133333 413.853013 546.133333 628.053333s-176.401067 286.72-176.401066 286.72H122.88V341.333333z" fill="#FFDD95" p-id="20449"></path><path d="M122.88 546.133333h123.839147c60.45696 0 102.30784 48.192853 93.426346 107.864747L301.305173 914.773333H122.88V546.133333z" fill="#ED5481" p-id="20450"></path><path d="M314.026667 327.68m-191.146667 0a191.146667 191.146667 0 1 0 382.293333 0 191.146667 191.146667 0 1 0-382.293333 0Z" fill="#FBAD4A" p-id="20451"></path><path d="M341.333333 259.413333m-40.96 0a40.96 40.96 0 1 0 81.92 0 40.96 40.96 0 1 0-81.92 0Z" fill="#FFFFFF" p-id="20452"></path></svg>